<?xml version="1.0" encoding="utf-8"?>
<!-- Generator: Adobe Illustrator 24.1.1, SVG Export Plug-In . SVG Version: 6.00 Build 0)  -->
<svg version="1.1" id="Layer_1" xmlns="http://www.w3.org/2000/svg" xmlns:xlink="http://www.w3.org/1999/xlink" x="0px" y="0px"
	 viewBox="0 0 1080 1080" style="enable-background:new 0 0 1080 1080;" xml:space="preserve">
<style type="text/css">
	.st0{fill:#578FCA;}
	.st1{fill:#088395;}
	.st2{fill:url(#SVGID_1_);}
	.st3{display:none;}
	.st4{display:inline;fill:#578FCA;}
	.st5{font-family:'DanubeBold';}
	.st6{font-size:227.6341px;}
	.st7{display:inline;}
	.st8{fill:#3674B5;}
</style>
<g>
	<path class="st0" d="M86.5,853c-13.8,0-25.7-4.8-35.6-14.5C40.9,828.8,36,817,36,803.3c0-13.8,4.9-25.5,14.8-35.3
		c9.9-9.8,21.8-14.7,35.6-14.7c13.8,0,25.7,4.9,35.7,14.7c9.9,9.8,14.9,21.6,14.9,35.3V853H86.5z M111.2,803.3c0-7-2.4-12.9-7.2-18
		c-4.8-5-10.7-7.5-17.6-7.5s-12.9,2.5-17.6,7.5c-4.8,5-7.2,11-7.2,18c0,6.9,2.4,12.8,7.2,17.8c4.8,5,10.7,7.5,17.6,7.5h24.8V803.3z"
		/>
	<path class="st0" d="M210.6,837.2c-6.1,9.9-15.3,14.7-27.1,14.7c-25.3-0.9-37.9-17.6-37.9-49.9c0-32,14.7-47.9,44.2-47.9
		c28.5,0,43.5,14,44.7,42.4v90.9h-12c-7.9,0-11.9-4-11.9-11.9V837.2z M210.6,803.1c0.2-19.2-6.5-28.7-20.1-28.7
		c-13.6,0-20.3,9.5-20.3,28.7c0.5,18.3,7,27.5,19.9,27.5S209.9,821.4,210.6,803.1z"/>
	<path class="st0" d="M325.7,812.2c0,16.3-4.1,27.1-12.6,32.3c-8.4,4.8-17.8,7.4-28,7.4c-9.9,0-18.7-2.7-26.9-8.1
		c-8.3-5.2-12.4-15.6-12.4-31.6v-57.1h23.9v61.9c0,10.6,5.4,15.8,16.2,15.8c10.8,0,16.2-5.2,16.2-15.8V767
		c-0.2-7.9,3.6-11.9,11.5-11.9h12.2V812.2z"/>
	<path class="st0" d="M360.7,779.9h-23.9c2.9-17.6,15.3-26.2,37.2-26.2c26.2,0,39.5,8.6,40,26.2v32.3c0,26.2-15.8,37.9-41.5,39.7
		c-22.8,1.8-38.6-8.8-38.6-29.8c0.5-22.8,17.1-28.9,41.1-31.2c10.2-1.3,15.4-4.3,15.4-9.5c-0.5-5.4-5.6-8.1-15.4-8.1
		C366.7,773.2,362,775.4,360.7,779.9z M390.9,811.1v-8.8c-5.6,2.3-12,4.3-19,5.7c-9.5,1.8-14.4,6.3-14.4,13.3
		c0.5,7.5,4.5,11.1,12,11.1C382.8,832.5,390.9,824.6,390.9,811.1z"/>
	<path class="st1" d="M454.1,789.4v60.7h-24.2v-55.8c0-27.1,13.6-40.6,40.8-40.6c12.2,0,21.5,2.7,28.4,8.1
		c6.8-5.2,16.2-7.7,28.4-7.7c27.1,0,40.6,13.5,40.4,40.6v55.8h-12.4c-7.9-0.5-11.8-4.3-11.8-11.9v-48.8c-0.5-9.9-5.9-14.7-16.5-14.7
		s-16,4.8-16.2,14.7v60.3h-24.1v-60.7c-0.5-9.9-5.9-14.7-16.5-14.7C459.7,774.7,454.3,779.5,454.1,789.4z"/>
	<path class="st1" d="M610.5,779.9h-23.9c2.9-17.6,15.3-26.2,37.2-26.2c26.2,0,39.5,8.6,40,26.2v32.3c0,26.2-15.8,37.9-41.5,39.7
		c-22.8,1.8-38.6-8.8-38.6-29.8c0.5-22.8,17.1-28.9,41.1-31.2c10.2-1.3,15.4-4.3,15.4-9.5c-0.5-5.4-5.6-8.1-15.4-8.1
		C616.4,773.2,611.7,775.4,610.5,779.9z M640.6,811.1v-8.8c-5.6,2.3-12,4.3-19,5.7c-9.5,1.8-14.4,6.3-14.4,13.3
		c0.5,7.5,4.5,11.1,12,11.1C632.6,832.5,640.6,824.6,640.6,811.1z"/>
	<path class="st1" d="M744.1,850.1c-7.9-0.5-11.9-4.3-11.9-11.9v-48.8c-0.5-9.9-5.9-14.7-16.5-14.7c-10.6,0-16,4.8-16.2,14.7v60.7
		h-24.2v-55.8c0-27.1,13.6-40.6,40.8-40.6s40.4,13.5,40.2,40.6v55.8H744.1z"/>
	<path class="st1" d="M791.7,779.9h-23.9c2.9-17.6,15.3-26.2,37.2-26.2c26.2,0,39.5,8.6,40,26.2v32.3c0,26.2-15.8,37.9-41.5,39.7
		c-22.8,1.8-38.6-8.8-38.6-29.8c0.5-22.8,17.1-28.9,41.1-31.2c10.2-1.3,15.4-4.3,15.4-9.5c-0.5-5.4-5.6-8.1-15.4-8.1
		C797.6,773.2,792.9,775.4,791.7,779.9z M821.8,811.1v-8.8c-5.6,2.3-12,4.3-19,5.7c-9.5,1.8-14.4,6.3-14.4,13.3
		c0.5,7.5,4.5,11.1,12,11.1C813.7,832.5,821.8,824.6,821.8,811.1z"/>
	<path class="st1" d="M855,802.7c0-31.6,14.7-47.4,44.2-47.9c29.6-0.2,44.5,13.8,44.5,42.4v56.2c0,23.9-15.1,35.9-45.4,36.4
		c-21.5,0-35.2-10.1-40.8-30.2h26.4c1.6,6.8,7.2,10.1,17.1,10.1c12.6,0,19-7.4,19-22.1c0,0,0,0.2,0-9.7c-6.1,9.3-15.3,14-27.1,14
		C867.6,851.9,855,835.4,855,802.7z M920,803.4c0.2-19.2-6.5-28.7-20.1-28.7s-20.3,9.5-20.3,28.7c0.5,18.3,7,27.5,19.9,27.5
		S919.3,821.7,920,803.4z"/>
	<path class="st1" d="M997.2,852.3c-28.7-0.9-43.1-17.6-43.1-49.9c0-32.3,14.5-48.5,43.5-48.7c30.2,0,44.3,18.5,42.6,55.7h-61.4
		c0.9,14.5,7.2,21.9,18.9,21.9c5.6,0,10.8-2.3,15.4-6.8c2.2-2.3,4.8-3.4,8.1-3.4h17.6C1033.5,841.1,1020.6,852.3,997.2,852.3z
		 M979.1,792.3h35.7c-1.4-12.6-7.4-19-17.6-19S980.9,779.7,979.1,792.3z"/>
</g>
<g>
	<g>
		<g>
			<path class="st1" d="M985.7,292.8c-39.6-39.1-87.1-58.6-142.7-58.6c-28.6,0-56,6-82.4,17.9c-26.4,11.9-49.1,28.4-68.3,49.4
				c-40.8-44.9-91.2-67.3-151.2-67.3c-48.3,0-90.6,14.8-126.9,44.4c26,26.4,43.1,56.3,51.4,89.7c1.5-1.8,3.2-3.6,4.9-5.4
				c19.5-20.3,43-30.4,70.6-30.4c27.9,0,51.5,10.1,70.6,30.1c19.1,20.1,28.7,44.1,28.7,72.1v108.8c0,24.8,8.9,46.2,26.8,64
				c17.9,17.9,43.2,26.8,75.8,26.8V434.8c0-27.6,9.7-51.6,29.2-71.8c19.5-20.3,43-30.4,70.6-30.4c27.9,0,51.5,10.1,70.6,30.1
				c19.1,20.1,28.7,44.1,28.7,72.1v108.8c0,24.8,8.9,46.2,26.8,64c17.9,17.9,43.2,26.8,75.8,26.8V434.8
				C1045,379.2,1025.2,331.9,985.7,292.8z"/>
		</g>
		<path class="st0" d="M238.5,634.4c-55.6,0-103.2-19.5-142.9-58.4C55.9,537.1,36,490,36,434.8c0-55.3,19.9-102.5,59.6-141.7
			c39.7-39.2,87.4-58.9,142.9-58.9s103.3,19.6,143.2,58.9c39.9,39.2,59.8,86.5,59.8,141.7v199.7H238.5z M337.9,434.8
			c0-27.9-9.6-52-28.8-72.1c-19.2-20.1-42.8-30.1-70.8-30.1s-51.6,10.1-70.8,30.1c-19.2,20.1-28.8,44.1-28.8,72.1
			c0,27.6,9.7,51.4,29,71.3C187,526,210.6,536,238.3,536h99.6V434.8z"/>
	</g>
	<g>
		<radialGradient id="SVGID_1_" cx="205.5556" cy="429.2222" r="167.0807" gradientUnits="userSpaceOnUse">
			<stop  offset="0" style="stop-color:#FFFFFF"/>
			<stop  offset="1.434372e-02" style="stop-color:#E6EEF6"/>
			<stop  offset="4.443813e-02" style="stop-color:#B8CEE5"/>
			<stop  offset="7.562247e-02" style="stop-color:#90B2D6"/>
			<stop  offset="0.1075" style="stop-color:#6F9CCA"/>
			<stop  offset="0.1401" style="stop-color:#568AC1"/>
			<stop  offset="0.174" style="stop-color:#447EBA"/>
			<stop  offset="0.2098" style="stop-color:#3976B6"/>
			<stop  offset="0.2509" style="stop-color:#3674B5"/>
		</radialGradient>
		<path class="st2" d="M238.5,495.7c-17,0-31.6-6-43.8-17.9c-12.2-11.9-18.3-26.4-18.3-43.3c0-16.9,6.1-31.4,18.3-43.5
			c12.2-12,26.8-18.1,43.8-18.1c17,0,31.7,6,43.9,18.1c12.2,12,18.3,26.5,18.3,43.5v61.2H238.5z M216.8,412.4"/>
	</g>
</g>
<g class="st3">
	<text transform="matrix(1 0 0 1 339.939 356.2177)" class="st4 st5 st6">AM</text>
	<g class="st7">
		<path class="st8" d="M432.4,303c-10.5,0-19.5-3.7-27-11c-7.5-7.4-11.3-16.3-11.3-26.7c0-10.4,3.8-19.4,11.3-26.8
			c7.5-7.4,16.5-11.1,27-11.1c10.5,0,19.5,3.7,27,11.1c7.5,7.4,11.3,16.3,11.3,26.8V303H432.4z M419,251.7"/>
	</g>
</g>
</svg>
